# xmcd
#
# Track frame offsets:
#	200
#	19100
#	48350
#	70325
#	103400
#	133175
#	150875
#	174350
#	209750
#	231500
#	249950
#
# Disc length: 3548 seconds
#
# Revision: 1
# Processed by: cddbd v1.5.1PL2 Copyright (c) Steve Scherf et al.
# Submitted via: audiograbber 1.83.01
#
DISCID=980dda0b
DTITLE=Juke and the Blue Joint - Blue Moods
DYEAR=1900
DGENRE=Blues
TTITLE0=Help Me
TTITLE1=Walking Blues
TTITLE2=Mellow Down Easy
TTITLE3=Come To Poppa
TTITLE4=I Wonder Why
TTITLE5=I Don't Know About Funk
TTITLE6=Up From The Streets
TTITLE7=Congo Square
TTITLE8=Groove Is In The Heart
TTITLE9=My Baby Didn't Come
TTITLE10=Nobody's Child
EXTD=
EXTT0=
EXTT1=
EXTT2=
EXTT3=feat. "The Shake Well Horns"
EXTT4=feat. Louisana Red
EXTT5=feat. Louisana Red
EXTT6=feat. "The Shake Well Horns"
EXTT7=
EXTT8=feat. "The Shake Well Horns"
EXTT9=feat. "The Shake Well Horns"
EXTT10=feat. Louisana Red
PLAYORDER=
